<svg width="60" height="32" viewBox="0 0 60 32" fill="none" xmlns="http://www.w3.org/2000/svg">
    <path fill-rule="evenodd" clip-rule="evenodd" d="M14.0715 17.2556C15.9161 16.7523 16.6021 15.0388 16.6021 13.6811C16.6021 11.3264 15.0036 9.74512 12.6242 9.74512H7.76465V12.1297H12.259C13.2551 12.1297 13.9248 12.7614 13.9248 13.6811C13.9248 14.6008 13.2551 15.2184 12.259 15.2184H8.92695V17.6017H11.4024L13.6872 21.8752H16.703L14.0715 17.2556Z" fill="#1D2142"/>
    <path fill-rule="evenodd" clip-rule="evenodd" d="M17.7705 9.74463V12.1255H20.925V21.8705H23.5512V12.1255H26.704V9.74463H17.7705Z" fill="#1D2142"/>
    <path fill-rule="evenodd" clip-rule="evenodd" d="M2.625 19.4893V9.74512H0V21.8706H7.76311V19.4893H2.625Z" fill="#1D2142"/>
    <path fill-rule="evenodd" clip-rule="evenodd" d="M46.2386 19.0039C45.4314 19.0039 44.7495 19.7067 44.7495 20.5378C44.7495 21.3694 45.4314 22.0718 46.2386 22.0718C47.0457 22.0718 47.7276 21.3694 47.7276 20.5378C47.7276 19.7067 47.0457 19.0039 46.2386 19.0039Z" fill="#1D2142"/>
    <path fill-rule="evenodd" clip-rule="evenodd" d="M49.9517 21.8748H52.3209V9.75928H49.9517V21.8748Z" fill="#1D2142"/>
    <path fill-rule="evenodd" clip-rule="evenodd" d="M59.2236 19.5728L59.1263 19.6729C59.0184 19.7847 58.7241 19.8999 58.4184 19.8999C58.0025 19.8999 57.7341 19.5591 57.7341 19.0329V15.2096H59.4376V13.056H57.7341V10.6909H57.4726L53.9565 14.1536V15.2096H55.3471V19.6418C55.3471 21.2202 56.222 22.0896 57.8095 22.0896C58.8611 22.0896 59.4218 21.7762 59.7068 21.5131L59.7441 21.4787L59.2236 19.5728Z" fill="#1D2142"/>
    <path fill-rule="evenodd" clip-rule="evenodd" d="M34.584 31.6222H37.2102V0H34.584V31.6222Z" fill="#1D2142"/>
</svg>
